<?xml version="1.0" encoding="utf-8"?>
<!-- Generator: Adobe Illustrator 16.0.0, SVG Export Plug-In . SVG Version: 6.00 Build 0)  -->
<!DOCTYPE svg PUBLIC "-//W3C//DTD SVG 1.1//EN" "http://www.w3.org/Graphics/SVG/1.1/DTD/svg11.dtd">
<svg version="1.1" id="Layer_1" xmlns="http://www.w3.org/2000/svg" xmlns:xlink="http://www.w3.org/1999/xlink" x="0px" y="0px"
	 width="400px" height="84px" viewBox="0 0 400 84" enable-background="new 0 0 400 84" xml:space="preserve">
<circle fill="#90278E" fill-opacity="0.5" cx="91.132" cy="36.444" r="19.206"/>
<path fill="#EB008B" fill-opacity="0.5" d="M129.543,55.652c0,10.604-8.599,19.207-19.206,19.207
	c-10.607,0-19.206-8.604-19.206-19.207c0-10.607,8.599-19.208,19.206-19.208C120.944,36.444,129.543,45.045,129.543,55.652z"/>
<circle fill="#00ADEE" fill-opacity="0.5" cx="115.865" cy="29.743" r="19.206"/>
<g>
	<path fill="#929497" d="M42.873-144.295v-42.616h8.114v15.717c2.43-3.132,5.879-4.729,9.521-4.729
		c7.859,0,13.672,6.135,13.672,16.229c0,10.286-5.878,16.166-13.672,16.166c-3.705,0-7.091-1.661-9.521-4.729v3.961H42.873z
		 M57.951-150.75c4.728,0,7.858-3.578,7.858-8.944c0-5.365-3.13-9.009-7.858-9.009c-2.62,0-5.623,1.532-6.965,3.579v10.924
		C52.328-152.219,55.332-150.75,57.951-150.75z"/>
	<path fill="#929497" d="M73.632-159.756c0-8.755,6.134-16.167,16.292-16.167c10.223,0,16.357,7.412,16.357,16.167
		c0,8.815-6.134,16.229-16.357,16.229C79.766-143.528,73.632-150.941,73.632-159.756z M97.847-159.756
		c0-4.793-2.875-8.946-7.922-8.946c-5.048,0-7.859,4.153-7.859,8.946c0,4.855,2.811,9.007,7.859,9.007
		C94.971-150.75,97.847-154.901,97.847-159.756z"/>
	<path fill="#929497" d="M108.121-136.373l3.642-5.877c2.492,2.746,5.751,3.834,9.648,3.834s8.498-1.726,8.498-7.797v-3.131
		c-2.427,3.066-5.751,4.854-9.52,4.854c-7.731,0-13.61-5.429-13.61-15.716c0-10.095,5.815-15.719,13.61-15.719
		c3.707,0,7.028,1.597,9.52,4.729v-3.962h8.178v28.753c0,11.756-9.072,14.63-16.676,14.63
		C116.107-131.773,112.019-132.987,108.121-136.373z M129.909-155.221v-9.966c-1.342-2.047-4.281-3.516-6.965-3.516
		c-4.599,0-7.794,3.196-7.794,8.498c0,5.304,3.195,8.499,7.794,8.499C125.628-151.706,128.567-153.239,129.909-155.221z"/>
	<path fill="#929497" d="M138.279-159.756c0-8.755,6.134-16.167,16.293-16.167c10.222,0,16.355,7.412,16.355,16.167
		c0,8.815-6.134,16.229-16.355,16.229C144.413-143.528,138.279-150.941,138.279-159.756z M162.494-159.756
		c0-4.793-2.875-8.946-7.922-8.946c-5.048,0-7.859,4.153-7.859,8.946c0,4.855,2.811,9.007,7.859,9.007
		C159.619-150.75,162.494-154.901,162.494-159.756z"/>
	<path fill="#929497" d="M172.231-144.295v-30.86h8.114v4.217c2.173-2.748,6.007-4.984,9.84-4.984V-168
		c-0.574-0.127-1.341-0.19-2.235-0.19c-2.685,0-6.262,1.533-7.604,3.513v20.382H172.231z"/>
	<path fill="#929497" d="M212.918-144.295v-3.961c-2.43,3.067-5.816,4.729-9.52,4.729c-7.796,0-13.675-5.88-13.675-16.166
		c0-10.094,5.815-16.229,13.675-16.229c3.641,0,7.09,1.597,9.52,4.729v-15.717h8.178v42.616H212.918z M212.918-154.263v-10.924
		c-1.344-2.047-4.281-3.516-7.029-3.516c-4.6,0-7.794,3.644-7.794,9.009c0,5.303,3.195,8.944,7.794,8.944
		C208.637-150.75,211.574-152.219,212.918-154.263z"/>
	<path fill="#929497" d="M221.287-159.756c0-8.946,6.58-16.167,15.973-16.167c9.201,0,15.463,6.9,15.463,16.997v1.787h-22.938
		c0.512,3.9,3.643,7.158,8.883,7.158c2.617,0,6.26-1.15,8.242-3.067l3.576,5.238c-3.066,2.813-7.924,4.282-12.715,4.282
		C228.379-143.528,221.287-149.853,221.287-159.756z M237.26-169.47c-5.047,0-7.219,3.769-7.604,6.836h15.209
		C244.674-165.571,242.627-169.47,237.26-169.47z"/>
	<path fill="#929497" d="M252.391-148.32l3.516-5.688c2.234,2.111,6.834,4.219,10.67,4.219c3.514,0,5.174-1.406,5.174-3.323
		c0-5.111-18.336-0.96-18.336-13.099c0-5.174,4.535-9.712,12.65-9.712c5.24,0,9.393,1.789,12.459,4.219l-3.26,5.557
		c-1.852-1.979-5.365-3.577-9.137-3.577c-2.938,0-4.854,1.342-4.854,3.067c0,4.598,18.273,0.767,18.273,13.227
		c0,5.621-4.793,9.903-13.355,9.903C260.826-143.528,255.65-145.316,252.391-148.32z"/>
	<path fill="#929497" d="M302.908-144.295v-3.195c-2.111,2.493-5.752,3.963-9.779,3.963c-4.918,0-10.732-3.321-10.732-10.224
		c0-7.221,5.814-9.968,10.732-9.968c4.092,0,7.734,1.341,9.779,3.771v-4.154c0-3.131-2.686-5.176-6.775-5.176
		c-3.32,0-6.387,1.215-9.008,3.643l-3.068-5.431c3.771-3.322,8.627-4.856,13.482-4.856c7.027,0,13.48,2.813,13.48,11.692v19.936
		H302.908z M302.908-151.706v-3.836c-1.344-1.79-3.898-2.683-6.52-2.683c-3.193,0-5.813,1.661-5.813,4.662
		c0,2.879,2.619,4.537,5.813,4.537C299.01-149.025,301.564-149.917,302.908-151.706z"/>
	<path fill="#929497" d="M314.715-183.333c0-2.685,2.236-4.792,4.855-4.792c2.684,0,4.855,2.107,4.855,4.792
		c0,2.682-2.172,4.855-4.855,4.855C316.951-178.479,314.715-180.652,314.715-183.333z M315.543-144.295v-30.86h8.115v30.86H315.543z
		"/>
	<path fill="#929497" d="M349.01-144.295v-18.656c0-4.283-2.234-5.751-5.684-5.751c-3.195,0-5.688,1.791-7.029,3.644v20.763h-8.115
		v-30.86h8.115v4.025c1.98-2.362,5.75-4.792,10.799-4.792c6.771,0,10.031,3.834,10.031,9.84v21.788H349.01z"/>
</g>
<g>
	<path fill="#808080" d="M142.424,46.886c0-9.933,7.308-17.951,17.738-17.951c10.217,0,17.171,7.663,17.171,18.874v1.986h-25.472
		c0.567,4.328,4.044,7.947,9.862,7.947c2.909,0,6.954-1.277,9.153-3.406l3.974,5.818c-3.406,3.122-8.798,4.754-14.12,4.754
		C150.3,64.908,142.424,57.884,142.424,46.886z M160.162,36.101c-5.605,0-8.018,4.186-8.443,7.591h16.887
		C168.393,40.429,166.122,36.101,160.162,36.101z"/>
	<path fill="#808080" d="M180.862,64.057V16.731h9.011v47.326H180.862z"/>
	<path fill="#808080" d="M214.389,64.057v-3.548c-2.341,2.768-6.385,4.399-10.855,4.399c-5.463,0-11.92-3.689-11.92-11.353
		c0-8.019,6.457-11.069,11.92-11.069c4.541,0,8.586,1.49,10.855,4.186v-4.612c0-3.477-2.979-5.747-7.521-5.747
		c-3.689,0-7.095,1.348-10.004,4.044l-3.406-6.031c4.187-3.689,9.579-5.393,14.972-5.393c7.805,0,14.971,3.122,14.971,12.984v22.138
		H214.389z M214.389,55.826v-4.258c-1.489-1.986-4.328-2.979-7.236-2.979c-3.548,0-6.457,1.845-6.457,5.18
		c0,3.192,2.909,5.037,6.457,5.037C210.061,58.806,212.899,57.813,214.389,55.826z"/>
	<path fill="#808080" d="M225.361,59.587l3.902-6.315c2.484,2.342,7.592,4.684,11.85,4.684c3.902,0,5.747-1.562,5.747-3.69
		c0-5.676-20.363-1.063-20.363-14.545c0-5.747,5.038-10.785,14.048-10.785c5.818,0,10.431,1.987,13.836,4.683l-3.618,6.173
		c-2.058-2.2-5.96-3.973-10.146-3.973c-3.265,0-5.393,1.49-5.393,3.406c0,5.108,20.292,0.851,20.292,14.687
		c0,6.244-5.321,10.998-14.829,10.998C234.728,64.908,228.98,62.922,225.361,59.587z"/>
	<path fill="#808080" d="M261.961,55.542v-17.88h-5.677v-7.876h5.677V20.42h9.082v9.366h6.953v7.876h-6.953V53.13
		c0,2.129,1.135,3.761,3.122,3.761c1.348,0,2.625-0.497,3.122-0.993l1.915,6.812c-1.348,1.206-3.761,2.199-7.521,2.199
		C265.366,64.908,261.961,61.645,261.961,55.542z"/>
	<path fill="#808080" d="M283.248,20.704c0-2.98,2.483-5.321,5.393-5.321c2.979,0,5.393,2.341,5.393,5.321s-2.413,5.393-5.393,5.393
		C285.731,26.097,283.248,23.684,283.248,20.704z M284.17,64.057V29.786h9.012v34.271H284.17z"/>
	<path fill="#808080" d="M320.33,64.057l-9.082-13.197l-4.115,4.399v8.798h-9.012V16.731h9.012v28.31l12.984-15.255h11.068
		l-13.552,15.539l13.978,18.731H320.33z"/>
</g>
</svg>
