<?xml version="1.0" encoding="utf-8"?>
<!-- Generator: Adobe Illustrator 16.0.0, SVG Export Plug-In . SVG Version: 6.00 Build 0)  -->
<!DOCTYPE svg PUBLIC "-//W3C//DTD SVG 1.1//EN" "http://www.w3.org/Graphics/SVG/1.1/DTD/svg11.dtd">
<svg version="1.1" id="Layer_1" xmlns="http://www.w3.org/2000/svg" xmlns:xlink="http://www.w3.org/1999/xlink" x="0px" y="0px"
	 width="280px" height="84px" viewBox="0 0 280 84" enable-background="new 0 0 280 84" xml:space="preserve">
<circle fill="#90298D" fill-opacity="0.5" cx="28.942" cy="34.636" r="19.206"/>
<path fill="#E90E8B" fill-opacity="0.5" d="M67.353,53.844c0,10.604-8.599,19.207-19.206,19.207
	c-10.607,0-19.206-8.604-19.206-19.207c0-10.607,8.599-19.208,19.206-19.208C58.754,34.636,67.353,43.236,67.353,53.844z"/>
<circle fill="#29ABE2" fill-opacity="0.5" cx="53.675" cy="27.935" r="19.206"/>
<g>
	<path fill="#818181" d="M80.234,45.078c0-9.933,7.309-17.952,17.738-17.952c10.217,0,17.17,7.663,17.17,18.874v1.986H89.671
		c0.566,4.328,4.043,7.947,9.861,7.947c2.91,0,6.954-1.277,9.153-3.406l3.975,5.818c-3.406,3.123-8.799,4.754-14.12,4.754
		C88.11,63.1,80.234,56.076,80.234,45.078z M97.972,34.293c-5.605,0-8.018,4.186-8.443,7.591h16.887
		C106.203,38.622,103.932,34.293,97.972,34.293z"/>
	<path fill="#818181" d="M118.672,62.248V14.923h9.012v47.325H118.672z"/>
	<path fill="#818181" d="M152.199,62.248v-3.547c-2.342,2.768-6.385,4.398-10.855,4.398c-5.463,0-11.92-3.689-11.92-11.352
		c0-8.02,6.457-11.07,11.92-11.07c4.541,0,8.586,1.49,10.855,4.188v-4.613c0-3.476-2.98-5.746-7.521-5.746
		c-3.689,0-7.094,1.348-10.004,4.044l-3.406-6.031c4.188-3.689,9.58-5.393,14.973-5.393c7.805,0,14.971,3.122,14.971,12.985v22.137
		H152.199z M152.199,54.018V49.76c-1.49-1.986-4.328-2.979-7.236-2.979c-3.549,0-6.457,1.844-6.457,5.18
		c0,3.191,2.908,5.037,6.457,5.037C147.871,56.998,150.709,56.004,152.199,54.018z"/>
	<path fill="#818181" d="M163.172,57.779l3.902-6.316c2.484,2.342,7.592,4.684,11.85,4.684c3.902,0,5.746-1.561,5.746-3.689
		c0-5.676-20.363-1.064-20.363-14.545c0-5.747,5.039-10.785,14.049-10.785c5.818,0,10.43,1.987,13.836,4.683l-3.619,6.174
		c-2.057-2.2-5.959-3.974-10.145-3.974c-3.266,0-5.393,1.489-5.393,3.405c0,5.109,20.291,0.852,20.291,14.687
		c0,6.244-5.32,10.998-14.828,10.998C172.537,63.1,166.791,61.113,163.172,57.779z"/>
	<path fill="#818181" d="M199.771,53.734v-17.88h-5.678v-7.876h5.678v-9.366h9.082v9.366h6.953v7.876h-6.953v15.468
		c0,2.129,1.135,3.76,3.121,3.76c1.348,0,2.625-0.496,3.123-0.992l1.914,6.811c-1.348,1.207-3.76,2.199-7.52,2.199
		C203.176,63.1,199.771,59.836,199.771,53.734z"/>
	<path fill="#818181" d="M221.059,18.896c0-2.98,2.482-5.321,5.393-5.321c2.979,0,5.393,2.341,5.393,5.321s-2.414,5.393-5.393,5.393
		C223.541,24.289,221.059,21.876,221.059,18.896z M221.98,62.248v-34.27h9.012v34.27H221.98z"/>
	<path fill="#818181" d="M258.141,62.248l-9.082-13.197l-4.115,4.4v8.797h-9.012V14.923h9.012v28.31l12.984-15.254h11.068
		l-13.553,15.54l13.979,18.73H258.141z"/>
</g>
</svg>
